<?xml version="1.0" encoding="utf-8"?>
<!-- Generator: Adobe Illustrator 19.2.1, SVG Export Plug-In . SVG Version: 6.00 Build 0)  -->
<svg version="1.1" id="Ebene_1" xmlns="http://www.w3.org/2000/svg" xmlns:xlink="http://www.w3.org/1999/xlink" x="0px" y="0px"
	 viewBox="0 0 6246.8 580" style="enable-background:new 0 0 6246.8 580;" xml:space="preserve">
<style type="text/css">
	.st0{fill:#FFFFFF;stroke:#EBEBEA;stroke-width:3.000000e-02;}
	.st1{fill:#FFFFFF;}
</style>
<title>paper</title>
<polygon class="st0" points="4976.7,0 4953.6,0 4959.4,10 "/>
<polygon class="st0" points="3244.6,20 3233.1,20 3244.6,40 3256.2,20 "/>
<polygon class="st0" points="3573.7,50 3567.9,40 3556.4,60 3579.5,60 "/>
<polygon class="st0" points="3752.7,40 3746.9,30 3741.2,20 3729.6,40 3741.2,60 3746.9,50 "/>
<polygon class="st0" points="3995.2,60 4006.7,40 3983.6,40 3989.4,50 "/>
<polygon class="st0" points="3539.1,70 3533.3,60 3521.8,80 3544.9,80 "/>
<polygon class="st0" points="4612.9,90 4607.2,80 4595.6,100 4618.7,100 "/>
<polygon class="st0" points="265.5,100 254,100 265.5,120 277.1,100 "/>
<polygon class="st0" points="1454.8,100 1460.6,110 1466.4,120 1477.9,100 "/>
<polygon class="st0" points="2424.8,100 2430.6,110 2436.3,120 2447.9,100 "/>
<polygon class="st0" points="3937.4,120 3920.1,110 3914.4,120 3920.1,130 "/>
<polygon class="st0" points="219.3,120 230.9,120 242.4,120 230.9,100 "/>
<polygon class="st0" points="2113,120 2101.5,100 2089.9,120 2101.5,120 "/>
<polygon class="st0" points="4537.9,120 4526.3,100 4514.8,120 4526.3,120 "/>
<polygon class="st0" points="392.5,140 404.1,140 415.6,140 404.1,120 381,120 386.7,130 "/>
<polygon class="st0" points="2084.2,130 2089.9,120 2066.8,120 2078.4,140 "/>
<polygon class="st0" points="4607.2,120 4595.6,140 4618.7,140 4612.9,130 "/>
<polygon class="st0" points="2673.1,150 2678.8,140 2655.7,140 2667.3,160 "/>
<polygon class="st0" points="2817.4,140 2811.6,150 2805.8,160 2828.9,160 "/>
<polygon class="st0" points="4630.3,140 4618.7,140 4630.3,160 4641.8,140 "/>
<polygon class="st0" points="2043.7,160 2032.2,160 2020.6,160 2014.9,170 2009.1,180 2032.2,180 "/>
<polygon class="st0" points="2499.8,170 2505.6,160 2499.8,150 2494.1,140 2482.5,160 2494.1,180 "/>
<polygon class="st0" points="900.6,180 889,160 877.5,180 889,180 "/>
<polygon class="st0" points="1812.8,200 1807,210 1801.3,220 1824.3,220 "/>
<polygon class="st0" points="2777,210 2782.8,200 2759.7,200 2771.2,220 "/>
<polygon class="st0" points="1050.7,240 1062.2,220 1039.2,220 1044.9,230 "/>
<polygon class="st0" points="1974.5,240 1962.9,220 1951.4,240 1962.9,240 "/>
<polygon class="st0" points="1073.8,240 1062.2,240 1050.7,240 1062.2,260 "/>
<polygon class="st0" points="1218.1,270 1223.9,260 1200.8,260 1212.4,280 "/>
<g>
	
		<image style="overflow:visible;opacity:0.35;" width="6417" height="752" xlink:href="8E04E27FDEDF645A.png"  transform="matrix(1 0 0 1 -86.0394 -85.0093)">
	</image>
	<g>
		<g>
			<polygon class="st1" points="5242.3,220 5253.8,200 5230.7,200 5236.5,210 			"/>
			<polygon class="st1" points="5790.7,230 5796.5,220 5773.4,220 5785,240 			"/>
			<polygon class="st1" points="5819.6,220 5808.1,220 5796.5,220 5808.1,240 			"/>
			<polygon class="st1" points="5935.1,300 5946.6,280 5935.1,260 5929.3,270 5923.5,280 5929.3,290 			"/>
			<polygon class="st1" points="6102.5,350 6096.7,340 6085.2,360 6108.3,360 			"/>
			<path class="st1" d="M6244.7,520l-5.8-10l-5.8-10l-11.5-20h23.1l-5.6-10l-5.8-10l-11.5-20l-11.5-20l-5.8,10l-5.8,10l-11.6-20
				H6164l-11.5,20l-11.6-20h-23.1l-11.6-20h-23.1l11.5-20h-23l-5.8-10l-5.8-10l5.8-10l5.8-10l-5.8-10l-5.8-10h-69.1l-11.6-20
				l-11.5,20l-5.8-10l-5.8-10l-11.5,20h-23.1l5.8-10l5.8-10h-23.1l-11.5-20l-5.8,10l-5.8,10l-11.6,20l-11.5-20l-5.8,10l-5.8,10
				l-11.5-20l11.5-20h-46.2l11.5-20h-23.1l11.6-20h-22.2l0,0l-11.5-20l-11.5,20h-23.1l-11.5-20l-5.8,10l-5.8,10h-11.5h-11.6l11.6,20
				h-23.1l5.8-10l-0.1,0l5.8-10h-23h-0.1h-23.1l-11.5,20h-23.1l-11.5,20l-11.5-20h-23.1l11.6-20l-11.6-20l-11.5-20h11.4h11.5
				l-11.5-20l-11.6,20h-22.9l-11.6-20l-5.8,10l-5.8,10l-11.5-20l-11.6,20l-5.8,10l-5.8,10l-11.6-20h-23.1H5426h-11.5h-23.1h-23.1
				h-11.5h-11.5l11.5,20l-11.5,20h-23.1H5300l5.8-10l5.8-10h23l-11.5-20l-11.6,20h-23.1l-11.5,20h-23.1l-11.5-20l-5.8,10l-5.8,10
				h-23l-5.8-10l-5.8-10h-23l11.5,20h-23.2l5.8-10l5.8-10l-5.8-10l-5.8-10l-11.6,20l-11.5,20l-5.8-10l-5.8-10l-11.6-20l11.6-20
				l-11.6-20l-11.5-20l-5.8,10l-5.8,10l-11.5-20l11.5-20h-23.1l-5.8-10l-5.8-10l-11.5-20l-11.5-20h-23l-11.5-20l-5.8,10l-5.8,10h23
				l-11.5,20l-5.8-10l-5.8-10h-46l11.6,20h-46.3l-11.5,20l-5.8,10l-5.8,10l-11.5-20h-23.1l-11.6,20l-11.5-20l-5.8,10l-5.8,10l5.8,10
				l5.8,10h-46.2l-11.5,20h-23.1l5.8,10l5.8,10h-23.1l-11.5,20l-5.8-10l-5.8-10h-23l-5.8-10l-5.8-10h-23.2l-5.8,10l-5.8,10l-11.5-20
				h-23.1l-11.5,20h-23.1l-11.5-20l-11.5-20h-23.1l-11.5,20h-23.1l-11.6,20l-5.8,10l-5.8,10h-23.1l-5.8,10l-5.8,10h-23.1l11.5,20
				h-23.1l-11.6,20h-23.1l-11.5-20H4330l5.8,10l5.8,10h-23.1h-23.1l-11.5-20h-46.1l-5.8,10l-5.8,10h-23.1l-5.8,10l-5.8,10l-11.5-20
				h-46.2l-5.8-10l-5.8-10l5.8-10l5.8-10h-69.3l11.5-20h-23.1l5.8-10l5.8-10l-5.8-10l-5.8-10l-11.6-20l-11.5-20l-5.8-10l-5.8-10
				H3972l-11.5-20l-5.8,10l-5.8,10h-23l-5.8,10l17.3,10l-17.3,10l5.8,10h-23.1l11.6,20h-23.1l11.5-20l-11.5-20l-5.8,10l-5.8,10
				l-11.6-20H3845l5.8-10l5.8-10l-5.8-10l-5.8-10l-11.6-20h-23l-11.6,20l-11.5-20l-5.8,10l-5.8,10l-11.6-20h-46.2l-5.8,10l-5.8,10
				l-11.5-20l-11.6-20H3637l5.8,10l5.8,10h-23.1l-11.6,20h-23.1v0.4l-11.3,19.6l-5.8-10l-5.8-10l-11.5,20l-11.5,20l-5.8-10l-5.8-10
				h-23.1l11.6,20h-23.1l5.7-10l5.8-10h-23.1l11.6-20h-23.1l11.5-20l-11.5-20l-5.8-10l-5.8-10h-23.1l-5.7,10l-5.8,10l-11.6-20h-46.2
				l-5.7-10l-5.8-10H3337l-5.8,10l-5.7,10h-46.2l-11.6,20h-23.1l-11.5,20H3210l-11.6,20l-5.7-10l-5.8-10l-11.6,20h-23l5.7,10l5.8,10
				h-23.1l-11.5,20H3083l-11.6-20l-11.5-20l-5.8-10l-5.8-10h-46.2l11.6-20h-23.1l-5.8,10l-5.8,10l-11.5,20h-23.1l-11.5,20l-11.6-20
				l-5.8,10l-5.7,10l-11.6,20h-23.1l-11.5,20h23.1l-5.8,10l-5.8,10l-11.5-20l-11.5,20H2829l-11.5,20l-5.8,10l-5.8,10l-11.6,20
				l-11.5,20l-5.8,10l-5.8,10l-11.6-20l-11.5,20H2725l-11.6-20l11.6-20h-23.1l-11.6,20l-11.5-20l-5.8-10l-5.8-10l-11.6-20h-23.1
				l-11.5,20h-46.2l-5.8,10l-5.8,10l-11.4-19.8V200h-0.1v0.2l-11.4,19.8h-23.1l-11.5-20l-5.8-10l-5.8-10H2471l11.5-20h-23.1l5.8-10
				l5.8-10h-23.1l-11.5,20l-5.8-10l-5.8-10h23.1l11.6-20h-46.2l-11.6,20h-23.1l-11.6-20h-23.1l-11.6-20l-5.8,10l-5.8,10l-11.5-20
				l-11.6,20l-5.8-10l-5.8-10l-11.5-20h-23.1l5.8,10l5.8,10h-92.2l-11.5,20h-23.1l11.6,20h-46.2l-11.5,20l-5.8,10l-5.8,10l-11.5-20
				l-11.6,20h-23.1l-11.6,20l11.6,20h-23.1l5.8,10l5.8,10h-23.1l-11.5,20H1940l5.8,10l5.8,10h-23.1l11.5,20h-92.6l-5.8-10l-5.8-10
				l-11.6-20l-11.5-20l-5.8-10l-5.8-10H1778l11.5-20h-23.1l5.8-10l5.8-10h-46.2l-11.6,20l-11.5-20l-5.8,10l-5.8,10l-11.5-20
				l-11.6-20l-5.8,10l-5.8,10l-11.5-20l11.5-20l-11.5-20l-11.6,20l-5.8-10l-5.8-10h-23.1l-5.8-10l-5.8-10l-11.5,20h-22.7l-11.6-20
				l-11.5,20h22.7l-11.5,20l-11.6-20l-5.8-10l-5.8-10l-11.5,20l11.5,20h-23l-5.8-10l-5.8-10h-45.8l-11.5,20l11.5,20h-23.1l5.8,10
				l5.8,10h-23.1l11.5,20h-23l-5.8,10l-5.8,10h-69.3l5.8,10l5.8,10l-5.8,10l-5.8,10h-23.2l11.6,20h-46.2l-5.8,10l-5.8,10h-69.2
				l-11.5-20h-23.1l5.8,10l5.8,10h-46.3l-11.5-20l-11.5,20l-5.8-10l-5.8-10h-23.1l-5.8-10l-5.8-10l-11.6-20l-11.6-20l-5.8-10
				l-5.8-10l5.8-10l5.8-10h-23.1l-11.5,20l-5.8,10l-5.8,10h-23.2l11.6-20h-69.3l-11.5-20h-22.9l-11.5-20h-23.1l-11.6,20l-5.8,10
				l-5.8,10l-11.5-20l11.5-20h-69.2l-11.6-20l-11.5-20l-5.8,10l-5.8,10l-11.6,20H658l5.8,10l5.8,10h-23.1L635,200h-23.1l-11.5,20
				h-23.1l11.5,20h-23l-5.8-10l-5.8-10h-69.3l5.8-10l5.8-10h-23.1l-11.5-20l-5.8,10l-5.8,10h-23.1l-5.8-10l-5.8-10L404,160h-23.1
				l-11.5-20V140h-23.1l5.8-10l5.8-10h-23.1l-11.5,20h-23.1l-11.6-20l-5.8,10l-5.8,10l-11.5-20h-23.1l-11.5,20h-23.1l-11.5-20h-46.2
				l-5.8-10l-5.8-10L127,120l-11.5-20H69.3l-11.6,20l-11.5,20l11.5,20l-11.5,20h23.1l5.8,10l5.8,10l-5.8,10l-5.8,10l5.8,10l5.8,10
				l-5.8,10l-5.8,10H46.2l11.5,20l-11.5,20l11.5,20l-11.5,20l11.5,20l-11.5,20l11.5,20l-11.5,20l-5.8,10l-5.8,10l-11.5,20l-11.5,20
				l-5.8,10L0,500l5.8,10l5.8,10l11.5,20l11.5,20l5.8,10l5.8,10h2805.4h46.5h0.1v0.1h2030.3h47.6h0.5h41.1h293.6l0,0h10.9h11.5h23.1
				h23.1h11.6h11.5h23.1h23.1h11.5h11.6h23.1h23.1h11.6h11.5h23.1h23.1h11.5h11.5h23.1h23.1h11.5h11.5h23.1h23.1h11.5h11.5h22.3l0,0
				h461.6l-11.5-20h23.1l-5.8-10l-5.8-10l5.8-10L6244.7,520z M1235.4,320L1235.4,320l11.5-20l5.8,10l5.8,10H1235.4z M3590.8,120.4
				L3590.8,120.4l-11.3,19.6l-5.8-10l-5.8-10h22.9V120.4z M5097.9,190l-5.8,10l-11.5-20h23.1L5097.9,190z M5979.4,340l11.5-19.9
				l5.8,9.9l5.8,10H5979.4z"/>
			<polygon class="st1" points="565.7,200 560,210 554.2,220 577.3,220 			"/>
			<polygon class="st1" points="4307,240 4318.5,260 4330,240 			"/>
		</g>
	</g>
</g>
</svg>
